 http://www.imdb.com/title/tt1745862/

Format : AVI
Format/Info : Audio Video Interleave
File size : 701 MiB
Duration : 1h 31mn
Overall bit rate : 1 069 Kbps
Writing library : VirtualDub build 32842/release

Video
ID : 0
Format : MPEG-4 Visual
Format profile : Advanced Simple@L5
Format settings, BVOP : 4
Format settings, QPel : No
Format settings, GMC : No warppoints
Format settings, Matrix : Default (H.263)
Muxing mode : Packed bitstream
Codec ID : XVID
Codec ID/Hint : XviD
Duration : 1h 31mn
Bit rate : 929 Kbps
Width : 640 pixels
Height : 352 pixels
Display aspect ratio : 16:9
Frame rate : 29.970 fps
Color space : YUV
Chroma subsampling : 4:2:0
Bit depth : 8 bits
Scan type : Progressive
Compression mode : Lossy
Bits/(Pixel*Frame) : 0.138
Stream size : 609 MiB (87%)
Writing library : XviD 1.2.0.dev47 (UTC 2006-11-01)

Audio
ID : 1
Format : MPEG Audio
Format version : Version 1
Format profile : Layer 3
Mode : Joint stereo
Mode extension : MS Stereo
Codec ID : 55
Codec ID/Hint : MP3
Duration : 1h 31mn
Bit rate mode : Constant
Bit rate : 128 Kbps
Channel(s) : 2 channels
Sampling rate : 44.1 KHz
Compression mode : Lossy
Stream size : 83.9 MiB (12%)
Alignment : Split accross interleaves
Interleave, duration : 33 ms (1.00 video frame)
Interleave, preload duration : 500 ms
Writing library : LAME3.98

Plot
A drama centered on the relationship between Phil Spector and defense attorney Linda Kenney Baden while the music business legend was on trial for the murder of Lana Clarkson.
 
http://www.shotpix.com/images/16978824938673216156.png 
http://www.shotpix.com/images/62368919999138870823.png 
http://www.shotpix.com/images/60881497368876811064.png